<mxfile host="app.diagrams.net" agent="Mozilla/5.0 (X11; Linux x86_64; rv:133.0) Gecko/20100101 Firefox/133.0" version="26.0.4">
  <diagram name="Page-1" id="RBolWIowSi4NTUFdvkCY">
    <mxGraphModel dx="824" dy="1127" grid="1" gridSize="10" guides="1" tooltips="1" connect="1" arrows="1" fold="1" page="0" pageScale="1" pageWidth="850" pageHeight="1100" math="0" shadow="0">
      <root>
        <mxCell id="0" />
        <mxCell id="1" parent="0" />
        <mxCell id="b3yPLvnxk9zS5zxye2hK-3" value="" style="edgeStyle=orthogonalEdgeStyle;rounded=0;orthogonalLoop=1;jettySize=auto;html=1;" edge="1" parent="1" source="b3yPLvnxk9zS5zxye2hK-1" target="b3yPLvnxk9zS5zxye2hK-2">
          <mxGeometry relative="1" as="geometry" />
        </mxCell>
        <mxCell id="b3yPLvnxk9zS5zxye2hK-1" value="Start" style="ellipse;whiteSpace=wrap;html=1;" vertex="1" parent="1">
          <mxGeometry x="497.5" y="160" width="85" height="60" as="geometry" />
        </mxCell>
        <mxCell id="b3yPLvnxk9zS5zxye2hK-5" value="" style="edgeStyle=orthogonalEdgeStyle;rounded=0;orthogonalLoop=1;jettySize=auto;html=1;" edge="1" parent="1" source="b3yPLvnxk9zS5zxye2hK-2" target="b3yPLvnxk9zS5zxye2hK-4">
          <mxGeometry relative="1" as="geometry" />
        </mxCell>
        <mxCell id="b3yPLvnxk9zS5zxye2hK-19" value="Exit" style="edgeLabel;html=1;align=center;verticalAlign=middle;resizable=0;points=[];" vertex="1" connectable="0" parent="b3yPLvnxk9zS5zxye2hK-5">
          <mxGeometry x="-0.2381" y="-1" relative="1" as="geometry">
            <mxPoint as="offset" />
          </mxGeometry>
        </mxCell>
        <mxCell id="b3yPLvnxk9zS5zxye2hK-7" value="" style="edgeStyle=orthogonalEdgeStyle;rounded=0;orthogonalLoop=1;jettySize=auto;html=1;" edge="1" parent="1" source="b3yPLvnxk9zS5zxye2hK-2" target="b3yPLvnxk9zS5zxye2hK-6">
          <mxGeometry relative="1" as="geometry" />
        </mxCell>
        <mxCell id="b3yPLvnxk9zS5zxye2hK-8" value="Enter" style="edgeLabel;html=1;align=center;verticalAlign=middle;resizable=0;points=[];" vertex="1" connectable="0" parent="b3yPLvnxk9zS5zxye2hK-7">
          <mxGeometry x="-0.1787" relative="1" as="geometry">
            <mxPoint as="offset" />
          </mxGeometry>
        </mxCell>
        <mxCell id="b3yPLvnxk9zS5zxye2hK-10" value="" style="edgeStyle=orthogonalEdgeStyle;rounded=0;orthogonalLoop=1;jettySize=auto;html=1;" edge="1" parent="1" source="b3yPLvnxk9zS5zxye2hK-2" target="b3yPLvnxk9zS5zxye2hK-9">
          <mxGeometry relative="1" as="geometry" />
        </mxCell>
        <mxCell id="b3yPLvnxk9zS5zxye2hK-17" value="Delete" style="edgeLabel;html=1;align=center;verticalAlign=middle;resizable=0;points=[];" vertex="1" connectable="0" parent="b3yPLvnxk9zS5zxye2hK-10">
          <mxGeometry x="-0.0095" y="1" relative="1" as="geometry">
            <mxPoint y="-1" as="offset" />
          </mxGeometry>
        </mxCell>
        <mxCell id="b3yPLvnxk9zS5zxye2hK-2" value="Option?" style="rhombus;whiteSpace=wrap;html=1;" vertex="1" parent="1">
          <mxGeometry x="500" y="290" width="80" height="80" as="geometry" />
        </mxCell>
        <mxCell id="b3yPLvnxk9zS5zxye2hK-4" value="End" style="ellipse;whiteSpace=wrap;html=1;" vertex="1" parent="1">
          <mxGeometry x="632.5" y="300" width="85" height="60" as="geometry" />
        </mxCell>
        <mxCell id="b3yPLvnxk9zS5zxye2hK-16" value="" style="edgeStyle=orthogonalEdgeStyle;rounded=0;orthogonalLoop=1;jettySize=auto;html=1;" edge="1" parent="1" source="b3yPLvnxk9zS5zxye2hK-6" target="b3yPLvnxk9zS5zxye2hK-15">
          <mxGeometry relative="1" as="geometry" />
        </mxCell>
        <mxCell id="b3yPLvnxk9zS5zxye2hK-6" value="dimension = input()" style="shape=parallelogram;perimeter=parallelogramPerimeter;whiteSpace=wrap;html=1;fixedSize=1;" vertex="1" parent="1">
          <mxGeometry x="473.13" y="450" width="133.75" height="60" as="geometry" />
        </mxCell>
        <mxCell id="b3yPLvnxk9zS5zxye2hK-12" value="" style="edgeStyle=orthogonalEdgeStyle;rounded=0;orthogonalLoop=1;jettySize=auto;html=1;" edge="1" parent="1" source="b3yPLvnxk9zS5zxye2hK-9" target="b3yPLvnxk9zS5zxye2hK-11">
          <mxGeometry relative="1" as="geometry" />
        </mxCell>
        <mxCell id="b3yPLvnxk9zS5zxye2hK-9" value="dimension = input()" style="shape=parallelogram;perimeter=parallelogramPerimeter;whiteSpace=wrap;html=1;fixedSize=1;" vertex="1" parent="1">
          <mxGeometry x="282.25" y="300" width="142.5" height="60" as="geometry" />
        </mxCell>
        <mxCell id="b3yPLvnxk9zS5zxye2hK-14" style="edgeStyle=orthogonalEdgeStyle;rounded=0;orthogonalLoop=1;jettySize=auto;html=1;exitX=0.5;exitY=0;exitDx=0;exitDy=0;" edge="1" parent="1" source="b3yPLvnxk9zS5zxye2hK-11">
          <mxGeometry relative="1" as="geometry">
            <mxPoint x="540" y="276" as="targetPoint" />
            <Array as="points">
              <mxPoint x="162" y="280" />
              <mxPoint x="540" y="280" />
            </Array>
          </mxGeometry>
        </mxCell>
        <mxCell id="b3yPLvnxk9zS5zxye2hK-11" value="dimensions.delete(dimension)" style="whiteSpace=wrap;html=1;" vertex="1" parent="1">
          <mxGeometry x="71" y="300" width="181.25" height="60" as="geometry" />
        </mxCell>
        <mxCell id="b3yPLvnxk9zS5zxye2hK-21" value="" style="edgeStyle=orthogonalEdgeStyle;rounded=0;orthogonalLoop=1;jettySize=auto;html=1;" edge="1" parent="1" source="b3yPLvnxk9zS5zxye2hK-15" target="b3yPLvnxk9zS5zxye2hK-20">
          <mxGeometry relative="1" as="geometry" />
        </mxCell>
        <mxCell id="b3yPLvnxk9zS5zxye2hK-22" value="No" style="edgeLabel;html=1;align=center;verticalAlign=middle;resizable=0;points=[];" vertex="1" connectable="0" parent="b3yPLvnxk9zS5zxye2hK-21">
          <mxGeometry x="0.0499" y="-2" relative="1" as="geometry">
            <mxPoint x="-12" y="-2" as="offset" />
          </mxGeometry>
        </mxCell>
        <mxCell id="b3yPLvnxk9zS5zxye2hK-24" value="" style="edgeStyle=orthogonalEdgeStyle;rounded=0;orthogonalLoop=1;jettySize=auto;html=1;" edge="1" parent="1" source="b3yPLvnxk9zS5zxye2hK-15" target="b3yPLvnxk9zS5zxye2hK-23">
          <mxGeometry relative="1" as="geometry" />
        </mxCell>
        <mxCell id="b3yPLvnxk9zS5zxye2hK-25" value="Yes" style="edgeLabel;html=1;align=center;verticalAlign=middle;resizable=0;points=[];" vertex="1" connectable="0" parent="b3yPLvnxk9zS5zxye2hK-24">
          <mxGeometry x="0.0002" y="-2" relative="1" as="geometry">
            <mxPoint as="offset" />
          </mxGeometry>
        </mxCell>
        <mxCell id="b3yPLvnxk9zS5zxye2hK-15" value="Exists?" style="rhombus;whiteSpace=wrap;html=1;" vertex="1" parent="1">
          <mxGeometry x="500.005" y="580" width="80" height="80" as="geometry" />
        </mxCell>
        <mxCell id="b3yPLvnxk9zS5zxye2hK-27" value="" style="edgeStyle=orthogonalEdgeStyle;rounded=0;orthogonalLoop=1;jettySize=auto;html=1;" edge="1" parent="1" source="b3yPLvnxk9zS5zxye2hK-20" target="b3yPLvnxk9zS5zxye2hK-26">
          <mxGeometry relative="1" as="geometry" />
        </mxCell>
        <mxCell id="b3yPLvnxk9zS5zxye2hK-29" value="No" style="edgeLabel;html=1;align=center;verticalAlign=middle;resizable=0;points=[];" vertex="1" connectable="0" parent="b3yPLvnxk9zS5zxye2hK-27">
          <mxGeometry x="-0.8583" relative="1" as="geometry">
            <mxPoint as="offset" />
          </mxGeometry>
        </mxCell>
        <mxCell id="b3yPLvnxk9zS5zxye2hK-32" style="edgeStyle=orthogonalEdgeStyle;rounded=0;orthogonalLoop=1;jettySize=auto;html=1;exitX=0.5;exitY=1;exitDx=0;exitDy=0;entryX=1;entryY=0.5;entryDx=0;entryDy=0;" edge="1" parent="1" source="b3yPLvnxk9zS5zxye2hK-20" target="b3yPLvnxk9zS5zxye2hK-30">
          <mxGeometry relative="1" as="geometry" />
        </mxCell>
        <mxCell id="b3yPLvnxk9zS5zxye2hK-34" value="Yes" style="edgeLabel;html=1;align=center;verticalAlign=middle;resizable=0;points=[];" vertex="1" connectable="0" parent="b3yPLvnxk9zS5zxye2hK-32">
          <mxGeometry x="-0.648" relative="1" as="geometry">
            <mxPoint as="offset" />
          </mxGeometry>
        </mxCell>
        <mxCell id="b3yPLvnxk9zS5zxye2hK-20" value="New?" style="rhombus;whiteSpace=wrap;html=1;" vertex="1" parent="1">
          <mxGeometry x="660.005" y="580" width="80" height="80" as="geometry" />
        </mxCell>
        <mxCell id="b3yPLvnxk9zS5zxye2hK-36" value="" style="edgeStyle=orthogonalEdgeStyle;rounded=0;orthogonalLoop=1;jettySize=auto;html=1;" edge="1" parent="1" source="b3yPLvnxk9zS5zxye2hK-23" target="b3yPLvnxk9zS5zxye2hK-35">
          <mxGeometry relative="1" as="geometry" />
        </mxCell>
        <mxCell id="b3yPLvnxk9zS5zxye2hK-23" value="dimensions.open(name)" style="whiteSpace=wrap;html=1;" vertex="1" parent="1">
          <mxGeometry x="290" y="590" width="150.01" height="60" as="geometry" />
        </mxCell>
        <mxCell id="b3yPLvnxk9zS5zxye2hK-28" style="edgeStyle=orthogonalEdgeStyle;rounded=0;orthogonalLoop=1;jettySize=auto;html=1;" edge="1" parent="1" source="b3yPLvnxk9zS5zxye2hK-26">
          <mxGeometry relative="1" as="geometry">
            <mxPoint x="540" y="275" as="targetPoint" />
          </mxGeometry>
        </mxCell>
        <mxCell id="b3yPLvnxk9zS5zxye2hK-26" value="output: Dimension does not exist" style="whiteSpace=wrap;html=1;" vertex="1" parent="1">
          <mxGeometry x="710" y="250" width="90" height="50" as="geometry" />
        </mxCell>
        <mxCell id="b3yPLvnxk9zS5zxye2hK-33" style="edgeStyle=orthogonalEdgeStyle;rounded=0;orthogonalLoop=1;jettySize=auto;html=1;exitX=0;exitY=0.5;exitDx=0;exitDy=0;entryX=0.5;entryY=1;entryDx=0;entryDy=0;" edge="1" parent="1" source="b3yPLvnxk9zS5zxye2hK-30" target="b3yPLvnxk9zS5zxye2hK-23">
          <mxGeometry relative="1" as="geometry" />
        </mxCell>
        <mxCell id="b3yPLvnxk9zS5zxye2hK-30" value="dimensions.create(name)" style="whiteSpace=wrap;html=1;" vertex="1" parent="1">
          <mxGeometry x="463.45" y="700" width="153.12" height="60" as="geometry" />
        </mxCell>
        <mxCell id="b3yPLvnxk9zS5zxye2hK-44" style="edgeStyle=orthogonalEdgeStyle;rounded=0;orthogonalLoop=1;jettySize=auto;html=1;exitX=0;exitY=0.5;exitDx=0;exitDy=0;entryX=1;entryY=0.5;entryDx=0;entryDy=0;" edge="1" parent="1" source="b3yPLvnxk9zS5zxye2hK-35" target="b3yPLvnxk9zS5zxye2hK-39">
          <mxGeometry relative="1" as="geometry" />
        </mxCell>
        <mxCell id="b3yPLvnxk9zS5zxye2hK-45" style="edgeStyle=orthogonalEdgeStyle;rounded=0;orthogonalLoop=1;jettySize=auto;html=1;exitX=0;exitY=0.5;exitDx=0;exitDy=0;entryX=1;entryY=0.5;entryDx=0;entryDy=0;" edge="1" parent="1" source="b3yPLvnxk9zS5zxye2hK-35" target="b3yPLvnxk9zS5zxye2hK-38">
          <mxGeometry relative="1" as="geometry" />
        </mxCell>
        <mxCell id="b3yPLvnxk9zS5zxye2hK-46" style="edgeStyle=orthogonalEdgeStyle;rounded=0;orthogonalLoop=1;jettySize=auto;html=1;exitX=0;exitY=0.5;exitDx=0;exitDy=0;entryX=1;entryY=0.5;entryDx=0;entryDy=0;" edge="1" parent="1" source="b3yPLvnxk9zS5zxye2hK-35" target="b3yPLvnxk9zS5zxye2hK-40">
          <mxGeometry relative="1" as="geometry" />
        </mxCell>
        <mxCell id="b3yPLvnxk9zS5zxye2hK-47" style="edgeStyle=orthogonalEdgeStyle;rounded=0;orthogonalLoop=1;jettySize=auto;html=1;exitX=0;exitY=0.5;exitDx=0;exitDy=0;entryX=1;entryY=0.5;entryDx=0;entryDy=0;" edge="1" parent="1" source="b3yPLvnxk9zS5zxye2hK-35" target="b3yPLvnxk9zS5zxye2hK-41">
          <mxGeometry relative="1" as="geometry" />
        </mxCell>
        <mxCell id="b3yPLvnxk9zS5zxye2hK-48" style="edgeStyle=orthogonalEdgeStyle;rounded=0;orthogonalLoop=1;jettySize=auto;html=1;exitX=0;exitY=0.5;exitDx=0;exitDy=0;entryX=1;entryY=0.5;entryDx=0;entryDy=0;" edge="1" parent="1" source="b3yPLvnxk9zS5zxye2hK-35" target="b3yPLvnxk9zS5zxye2hK-37">
          <mxGeometry relative="1" as="geometry" />
        </mxCell>
        <mxCell id="b3yPLvnxk9zS5zxye2hK-51" style="edgeStyle=orthogonalEdgeStyle;rounded=0;orthogonalLoop=1;jettySize=auto;html=1;exitX=0.5;exitY=0;exitDx=0;exitDy=0;entryX=1;entryY=0.5;entryDx=0;entryDy=0;" edge="1" parent="1" source="b3yPLvnxk9zS5zxye2hK-35" target="b3yPLvnxk9zS5zxye2hK-42">
          <mxGeometry relative="1" as="geometry" />
        </mxCell>
        <mxCell id="b3yPLvnxk9zS5zxye2hK-35" value="GUI input" style="whiteSpace=wrap;html=1;" vertex="1" parent="1">
          <mxGeometry x="174.12" y="595" width="95.01" height="50" as="geometry" />
        </mxCell>
        <mxCell id="b3yPLvnxk9zS5zxye2hK-50" style="edgeStyle=orthogonalEdgeStyle;rounded=0;orthogonalLoop=1;jettySize=auto;html=1;exitX=1;exitY=0.5;exitDx=0;exitDy=0;entryX=0;entryY=0.5;entryDx=0;entryDy=0;" edge="1" parent="1" source="b3yPLvnxk9zS5zxye2hK-37" target="b3yPLvnxk9zS5zxye2hK-35">
          <mxGeometry relative="1" as="geometry" />
        </mxCell>
        <mxCell id="b3yPLvnxk9zS5zxye2hK-37" value="open_file()" style="rounded=0;whiteSpace=wrap;html=1;" vertex="1" parent="1">
          <mxGeometry x="54.120000000000005" y="460" width="80" height="40" as="geometry" />
        </mxCell>
        <mxCell id="b3yPLvnxk9zS5zxye2hK-38" value="show_folder()" style="rounded=0;whiteSpace=wrap;html=1;" vertex="1" parent="1">
          <mxGeometry x="54.120000000000005" y="530" width="80" height="40" as="geometry" />
        </mxCell>
        <mxCell id="b3yPLvnxk9zS5zxye2hK-39" value="close_folder()" style="rounded=0;whiteSpace=wrap;html=1;" vertex="1" parent="1">
          <mxGeometry x="54.120000000000005" y="600" width="80" height="40" as="geometry" />
        </mxCell>
        <mxCell id="b3yPLvnxk9zS5zxye2hK-40" value="create_folder()" style="rounded=0;whiteSpace=wrap;html=1;" vertex="1" parent="1">
          <mxGeometry x="55.120000000000005" y="670" width="79" height="40" as="geometry" />
        </mxCell>
        <mxCell id="b3yPLvnxk9zS5zxye2hK-41" value="create_file()" style="rounded=0;whiteSpace=wrap;html=1;" vertex="1" parent="1">
          <mxGeometry x="55.120000000000005" y="740" width="79" height="40" as="geometry" />
        </mxCell>
        <mxCell id="b3yPLvnxk9zS5zxye2hK-52" style="edgeStyle=orthogonalEdgeStyle;rounded=0;orthogonalLoop=1;jettySize=auto;html=1;exitX=0;exitY=0.5;exitDx=0;exitDy=0;" edge="1" parent="1" source="b3yPLvnxk9zS5zxye2hK-42">
          <mxGeometry relative="1" as="geometry">
            <mxPoint x="160" y="280" as="targetPoint" />
            <Array as="points">
              <mxPoint x="31" y="410" />
            </Array>
          </mxGeometry>
        </mxCell>
        <mxCell id="b3yPLvnxk9zS5zxye2hK-42" value="return" style="rounded=0;whiteSpace=wrap;html=1;" vertex="1" parent="1">
          <mxGeometry x="55.120000000000005" y="390" width="80" height="40" as="geometry" />
        </mxCell>
      </root>
    </mxGraphModel>
  </diagram>
</mxfile>
